<?xml version="1.0" encoding="utf-8"?>
<!-- Generator: Adobe Illustrator 16.0.0, SVG Export Plug-In . SVG Version: 6.00 Build 0)  -->
<!DOCTYPE svg PUBLIC "-//W3C//DTD SVG 1.1//EN" "http://www.w3.org/Graphics/SVG/1.1/DTD/svg11.dtd">
<svg version="1.1" id="Layer_1" xmlns="http://www.w3.org/2000/svg" xmlns:xlink="http://www.w3.org/1999/xlink" x="0px" y="0px"
	 width="150px" height="96px" viewBox="0 0 150 96" enable-background="new 0 0 150 96" xml:space="preserve">
<g>
	<path fill="#A8A8A8" d="M14.282,89.974c0,0.13-0.022,0.241-0.065,0.332c-0.044,0.091-0.101,0.166-0.172,0.225
		s-0.15,0.101-0.237,0.127c-0.088,0.026-0.175,0.039-0.263,0.039h-0.556c-0.175,0-0.328-0.018-0.459-0.054s-0.256-0.101-0.374-0.195
		s-0.236-0.223-0.354-0.386s-0.243-0.371-0.375-0.625l-3.855-7.188c-0.202-0.371-0.405-0.76-0.609-1.167
		c-0.205-0.407-0.396-0.803-0.572-1.187h-0.02c0.013,0.469,0.023,0.947,0.029,1.436s0.01,0.974,0.01,1.455v7.627
		c0,0.046-0.014,0.09-0.041,0.132c-0.028,0.042-0.074,0.075-0.139,0.098c-0.065,0.022-0.151,0.042-0.258,0.059
		s-0.242,0.024-0.407,0.024c-0.165,0-0.3-0.008-0.407-0.024s-0.191-0.036-0.252-0.059C4.844,90.62,4.8,90.587,4.772,90.545
		c-0.027-0.042-0.041-0.086-0.041-0.132v-11.66c0-0.261,0.074-0.446,0.222-0.557s0.309-0.166,0.484-0.166h0.827
		c0.195,0,0.357,0.017,0.489,0.049C6.883,78.111,7,78.165,7.104,78.24s0.205,0.179,0.303,0.313c0.097,0.134,0.199,0.301,0.307,0.503
		l2.963,5.547c0.183,0.339,0.358,0.669,0.529,0.991c0.169,0.322,0.333,0.64,0.491,0.952c0.157,0.313,0.313,0.62,0.467,0.923
		c0.154,0.303,0.307,0.607,0.458,0.913h0.01c-0.013-0.515-0.021-1.05-0.024-1.606s-0.005-1.092-0.005-1.606v-6.855
		c0-0.046,0.014-0.088,0.041-0.127c0.028-0.039,0.074-0.073,0.139-0.103s0.151-0.051,0.258-0.063s0.246-0.02,0.417-0.02
		c0.151,0,0.281,0.007,0.391,0.02s0.196,0.034,0.258,0.063s0.106,0.063,0.134,0.103c0.027,0.039,0.041,0.081,0.041,0.127V89.974z"/>
	<path fill="#A8A8A8" d="M25.629,85.931c0,0.716-0.094,1.375-0.283,1.978s-0.47,1.121-0.845,1.558s-0.843,0.776-1.406,1.021
		s-1.216,0.366-1.958,0.366c-0.723,0-1.353-0.107-1.89-0.322s-0.985-0.527-1.343-0.938s-0.625-0.908-0.801-1.494
		s-0.264-1.25-0.264-1.992c0-0.716,0.093-1.375,0.278-1.978s0.465-1.121,0.84-1.558s0.841-0.774,1.401-1.016
		s1.214-0.361,1.963-0.361c0.723,0,1.353,0.107,1.89,0.322s0.985,0.527,1.343,0.938s0.626,0.908,0.806,1.494
		S25.629,85.195,25.629,85.931z M23.959,86.038c0-0.476-0.044-0.925-0.133-1.348c-0.089-0.423-0.235-0.794-0.439-1.113
		s-0.479-0.571-0.828-0.757s-0.782-0.278-1.301-0.278c-0.479,0-0.892,0.085-1.236,0.254c-0.345,0.169-0.629,0.408-0.853,0.718
		c-0.224,0.31-0.389,0.676-0.498,1.099s-0.163,0.886-0.163,1.387c0,0.481,0.044,0.935,0.133,1.357
		c0.089,0.423,0.237,0.793,0.444,1.108c0.207,0.315,0.484,0.566,0.833,0.752c0.348,0.186,0.782,0.278,1.301,0.278
		c0.473,0,0.883-0.085,1.231-0.254s0.634-0.407,0.857-0.713c0.223-0.306,0.388-0.671,0.493-1.094S23.959,86.546,23.959,86.038z"/>
	<path fill="#A8A8A8" d="M42.426,84.163c0,1.094-0.14,2.049-0.42,2.866s-0.688,1.494-1.226,2.031S39.584,90,38.803,90.267
		s-1.712,0.4-2.793,0.4h-2.676c-0.15,0-0.292-0.051-0.425-0.151s-0.2-0.278-0.2-0.532v-11.27c0-0.254,0.067-0.432,0.2-0.532
		s0.275-0.151,0.425-0.151h2.861c1.094,0,2.018,0.142,2.773,0.425s1.388,0.69,1.899,1.221s0.898,1.174,1.162,1.929
		S42.426,83.213,42.426,84.163z M40.659,84.231c0-0.684-0.084-1.32-0.254-1.909s-0.435-1.099-0.796-1.528s-0.819-0.765-1.372-1.006
		s-1.266-0.361-2.139-0.361h-1.709v9.834h1.729c0.807,0,1.488-0.101,2.041-0.303s1.016-0.511,1.387-0.928s0.649-0.939,0.835-1.567
		S40.659,85.091,40.659,84.231z"/>
	<path fill="#A8A8A8" d="M51.45,90.433c0,0.078-0.026,0.137-0.078,0.176s-0.124,0.068-0.215,0.088s-0.225,0.029-0.4,0.029
		c-0.169,0-0.304-0.01-0.405-0.029s-0.174-0.049-0.22-0.088s-0.068-0.098-0.068-0.176v-0.879c-0.384,0.41-0.812,0.729-1.284,0.957
		s-0.972,0.342-1.499,0.342c-0.462,0-0.88-0.061-1.255-0.181s-0.693-0.295-0.957-0.522s-0.469-0.508-0.615-0.84
		s-0.22-0.71-0.22-1.133c0-0.495,0.101-0.925,0.303-1.289s0.492-0.667,0.869-0.908s0.84-0.422,1.387-0.542s1.162-0.181,1.846-0.181
		h1.211v-0.684c0-0.339-0.036-0.638-0.107-0.898s-0.187-0.477-0.347-0.649s-0.366-0.303-0.62-0.391s-0.566-0.132-0.938-0.132
		c-0.397,0-0.753,0.047-1.069,0.142s-0.592,0.198-0.83,0.313s-0.436,0.218-0.596,0.313s-0.278,0.142-0.356,0.142
		c-0.052,0-0.098-0.013-0.137-0.039s-0.073-0.065-0.103-0.117s-0.05-0.119-0.063-0.2s-0.02-0.171-0.02-0.269
		c0-0.163,0.011-0.291,0.034-0.386s0.078-0.184,0.166-0.269s0.239-0.184,0.454-0.298s0.462-0.218,0.742-0.313
		s0.586-0.173,0.918-0.234s0.667-0.093,1.006-0.093c0.631,0,1.168,0.071,1.611,0.215s0.801,0.354,1.074,0.63s0.472,0.62,0.596,1.03
		s0.186,0.889,0.186,1.436V90.433z M49.848,86.419h-1.377c-0.443,0-0.827,0.037-1.152,0.112s-0.596,0.186-0.811,0.332
		s-0.373,0.322-0.474,0.527s-0.151,0.441-0.151,0.708c0,0.456,0.145,0.818,0.435,1.089s0.695,0.405,1.216,0.405
		c0.423,0,0.815-0.107,1.177-0.322s0.741-0.544,1.138-0.986V86.419z"/>
	<path fill="#A8A8A8" d="M58.793,89.778c0,0.188-0.013,0.339-0.039,0.449s-0.065,0.192-0.117,0.244s-0.13,0.101-0.234,0.146
		s-0.223,0.083-0.356,0.112s-0.275,0.054-0.425,0.073s-0.299,0.029-0.449,0.029c-0.456,0-0.846-0.061-1.172-0.181
		s-0.592-0.303-0.801-0.547s-0.36-0.554-0.454-0.928s-0.142-0.815-0.142-1.323v-5.137h-1.23c-0.098,0-0.176-0.052-0.234-0.156
		s-0.088-0.273-0.088-0.508c0-0.124,0.008-0.228,0.024-0.313s0.038-0.154,0.063-0.21s0.06-0.095,0.103-0.117
		s0.089-0.034,0.142-0.034h1.221v-2.09c0-0.046,0.011-0.088,0.034-0.127s0.065-0.073,0.127-0.103s0.145-0.051,0.249-0.063
		s0.234-0.02,0.391-0.02c0.163,0,0.296,0.007,0.4,0.02s0.186,0.034,0.244,0.063s0.101,0.063,0.127,0.103s0.039,0.081,0.039,0.127
		v2.09h2.256c0.052,0,0.098,0.012,0.137,0.034s0.073,0.062,0.103,0.117s0.05,0.125,0.063,0.21s0.02,0.188,0.02,0.313
		c0,0.234-0.029,0.403-0.088,0.508s-0.137,0.156-0.234,0.156h-2.256v4.902c0,0.605,0.089,1.063,0.269,1.372s0.5,0.464,0.962,0.464
		c0.15,0,0.283-0.015,0.4-0.044s0.221-0.061,0.313-0.093s0.169-0.063,0.234-0.093s0.124-0.044,0.176-0.044
		c0.033,0,0.063,0.008,0.093,0.024s0.052,0.047,0.068,0.093s0.031,0.107,0.044,0.186S58.793,89.661,58.793,89.778z"/>
	<path fill="#A8A8A8" d="M67.299,90.433c0,0.078-0.026,0.137-0.078,0.176s-0.124,0.068-0.215,0.088s-0.225,0.029-0.4,0.029
		c-0.169,0-0.304-0.01-0.405-0.029s-0.174-0.049-0.22-0.088s-0.068-0.098-0.068-0.176v-0.879c-0.384,0.41-0.812,0.729-1.284,0.957
		s-0.972,0.342-1.499,0.342c-0.462,0-0.88-0.061-1.255-0.181s-0.693-0.295-0.957-0.522s-0.469-0.508-0.615-0.84
		s-0.22-0.71-0.22-1.133c0-0.495,0.101-0.925,0.303-1.289s0.492-0.667,0.869-0.908s0.84-0.422,1.387-0.542s1.162-0.181,1.846-0.181
		h1.211v-0.684c0-0.339-0.036-0.638-0.107-0.898s-0.187-0.477-0.347-0.649s-0.366-0.303-0.62-0.391s-0.566-0.132-0.938-0.132
		c-0.397,0-0.753,0.047-1.069,0.142s-0.592,0.198-0.83,0.313s-0.436,0.218-0.596,0.313s-0.278,0.142-0.356,0.142
		c-0.052,0-0.098-0.013-0.137-0.039s-0.073-0.065-0.103-0.117s-0.05-0.119-0.063-0.2s-0.02-0.171-0.02-0.269
		c0-0.163,0.011-0.291,0.034-0.386s0.078-0.184,0.166-0.269s0.239-0.184,0.454-0.298s0.462-0.218,0.742-0.313
		s0.586-0.173,0.918-0.234s0.667-0.093,1.006-0.093c0.631,0,1.168,0.071,1.611,0.215s0.801,0.354,1.074,0.63s0.472,0.62,0.596,1.03
		s0.186,0.889,0.186,1.436V90.433z M65.698,86.419h-1.377c-0.443,0-0.827,0.037-1.152,0.112s-0.596,0.186-0.811,0.332
		s-0.373,0.322-0.474,0.527s-0.151,0.441-0.151,0.708c0,0.456,0.145,0.818,0.435,1.089s0.695,0.405,1.216,0.405
		c0.423,0,0.815-0.107,1.177-0.322s0.741-0.544,1.138-0.986V86.419z"/>
	<path fill="#A8A8A8" d="M84.428,90.071c0.053,0.144,0.08,0.259,0.084,0.347c0.003,0.088-0.021,0.154-0.074,0.2
		c-0.052,0.046-0.138,0.075-0.258,0.088c-0.121,0.013-0.282,0.02-0.484,0.02c-0.201,0-0.362-0.005-0.482-0.015
		c-0.121-0.01-0.212-0.026-0.273-0.049c-0.063-0.022-0.107-0.054-0.137-0.093s-0.058-0.088-0.084-0.146l-1.084-3.076h-5.254
		l-1.035,3.037c-0.02,0.059-0.045,0.109-0.078,0.151c-0.032,0.042-0.079,0.078-0.141,0.107c-0.063,0.029-0.15,0.051-0.264,0.063
		s-0.262,0.02-0.444,0.02c-0.189,0-0.343-0.008-0.464-0.024s-0.205-0.047-0.254-0.093s-0.072-0.112-0.068-0.2
		s0.031-0.203,0.083-0.347l4.238-11.738c0.026-0.071,0.061-0.13,0.104-0.176c0.042-0.046,0.104-0.081,0.186-0.107
		c0.081-0.026,0.186-0.044,0.313-0.054s0.287-0.015,0.482-0.015c0.209,0,0.381,0.005,0.518,0.015s0.248,0.027,0.332,0.054
		c0.085,0.026,0.15,0.063,0.195,0.112c0.046,0.049,0.082,0.109,0.107,0.181L84.428,90.071z M78.988,79.71h-0.01l-2.178,6.299h4.395
		L78.988,79.71z"/>
	<path fill="#A8A8A8" d="M93.188,81.614c0,0.026-0.001,0.054-0.004,0.083c-0.004,0.029-0.009,0.061-0.016,0.093
		c-0.006,0.032-0.014,0.068-0.023,0.107s-0.021,0.081-0.035,0.127l-2.998,8.35c-0.025,0.071-0.06,0.13-0.102,0.176
		c-0.043,0.046-0.106,0.081-0.191,0.107c-0.084,0.026-0.191,0.044-0.322,0.054c-0.13,0.01-0.293,0.015-0.488,0.015
		s-0.357-0.007-0.488-0.02c-0.13-0.013-0.235-0.032-0.316-0.059c-0.082-0.026-0.146-0.062-0.191-0.107
		c-0.045-0.046-0.081-0.101-0.107-0.166l-2.988-8.35c-0.025-0.078-0.047-0.146-0.063-0.205c-0.017-0.059-0.026-0.103-0.029-0.132
		c-0.004-0.029-0.006-0.054-0.006-0.073c0-0.052,0.014-0.098,0.039-0.137c0.026-0.039,0.07-0.07,0.133-0.093
		c0.062-0.022,0.143-0.037,0.244-0.044c0.101-0.007,0.226-0.01,0.375-0.01c0.189,0,0.341,0.005,0.455,0.015
		c0.113,0.01,0.201,0.027,0.264,0.054c0.062,0.026,0.107,0.059,0.137,0.098s0.057,0.088,0.082,0.146l2.48,7.246l0.039,0.117
		l0.029-0.117l2.451-7.246c0.014-0.059,0.036-0.107,0.068-0.146c0.033-0.039,0.08-0.071,0.143-0.098
		c0.062-0.026,0.146-0.044,0.254-0.054s0.248-0.015,0.424-0.015c0.15,0,0.273,0.003,0.371,0.01s0.175,0.022,0.23,0.049
		c0.055,0.026,0.094,0.057,0.117,0.093C93.177,81.519,93.188,81.563,93.188,81.614z"/>
	<path fill="#A8A8A8" d="M101.342,90.433c0,0.078-0.025,0.137-0.078,0.176c-0.051,0.039-0.123,0.068-0.215,0.088
		c-0.09,0.02-0.225,0.029-0.4,0.029c-0.168,0-0.305-0.01-0.404-0.029c-0.102-0.02-0.175-0.049-0.221-0.088
		c-0.045-0.039-0.068-0.098-0.068-0.176v-0.879c-0.384,0.41-0.812,0.729-1.283,0.957c-0.473,0.228-0.973,0.342-1.5,0.342
		c-0.462,0-0.88-0.061-1.254-0.181c-0.375-0.12-0.693-0.295-0.957-0.522s-0.469-0.508-0.615-0.84s-0.221-0.71-0.221-1.133
		c0-0.495,0.102-0.925,0.303-1.289c0.202-0.364,0.492-0.667,0.869-0.908c0.378-0.241,0.84-0.422,1.387-0.542
		s1.162-0.181,1.846-0.181h1.211v-0.684c0-0.339-0.035-0.638-0.107-0.898c-0.071-0.261-0.187-0.477-0.346-0.649
		c-0.16-0.173-0.367-0.303-0.621-0.391s-0.566-0.132-0.938-0.132c-0.396,0-0.753,0.047-1.068,0.142
		c-0.316,0.095-0.593,0.198-0.83,0.313c-0.238,0.114-0.437,0.218-0.596,0.313c-0.16,0.095-0.279,0.142-0.357,0.142
		c-0.052,0-0.098-0.013-0.137-0.039s-0.072-0.065-0.102-0.117s-0.051-0.119-0.064-0.2c-0.013-0.081-0.02-0.171-0.02-0.269
		c0-0.163,0.012-0.291,0.035-0.386c0.022-0.095,0.078-0.184,0.166-0.269s0.238-0.184,0.453-0.298s0.463-0.218,0.742-0.313
		c0.28-0.095,0.586-0.173,0.918-0.234s0.668-0.093,1.006-0.093c0.632,0,1.169,0.071,1.611,0.215c0.443,0.144,0.801,0.354,1.074,0.63
		s0.473,0.62,0.596,1.03c0.125,0.41,0.186,0.889,0.186,1.436V90.433z M99.74,86.419h-1.377c-0.442,0-0.826,0.037-1.152,0.112
		c-0.325,0.075-0.596,0.186-0.811,0.332s-0.372,0.322-0.473,0.527c-0.102,0.205-0.152,0.441-0.152,0.708
		c0,0.456,0.146,0.818,0.436,1.089c0.289,0.271,0.694,0.405,1.215,0.405c0.424,0,0.816-0.107,1.178-0.322s0.74-0.544,1.137-0.986
		V86.419z"/>
	<path fill="#A8A8A8" d="M106.098,78.665c0,0.378-0.07,0.635-0.215,0.771c-0.143,0.137-0.406,0.205-0.791,0.205
		c-0.377,0-0.637-0.066-0.775-0.2c-0.141-0.134-0.211-0.386-0.211-0.757c0-0.378,0.072-0.635,0.215-0.771
		c0.145-0.137,0.408-0.205,0.791-0.205c0.379,0,0.637,0.066,0.777,0.2C106.027,78.042,106.098,78.294,106.098,78.665z
		 M105.912,90.423c0,0.052-0.012,0.096-0.039,0.132c-0.025,0.036-0.068,0.066-0.127,0.093s-0.139,0.046-0.244,0.059
		c-0.104,0.013-0.236,0.02-0.4,0.02c-0.156,0-0.285-0.007-0.391-0.02c-0.104-0.013-0.188-0.032-0.248-0.059
		c-0.063-0.026-0.105-0.057-0.127-0.093c-0.023-0.036-0.035-0.08-0.035-0.132v-8.789c0-0.046,0.012-0.088,0.035-0.127
		c0.021-0.039,0.064-0.071,0.127-0.098c0.061-0.026,0.145-0.046,0.248-0.059c0.105-0.013,0.234-0.02,0.391-0.02
		c0.164,0,0.297,0.007,0.4,0.02c0.105,0.013,0.186,0.032,0.244,0.059s0.102,0.059,0.127,0.098c0.027,0.039,0.039,0.081,0.039,0.127
		V90.423z"/>
	<path fill="#A8A8A8" d="M110.502,90.423c0,0.052-0.012,0.096-0.039,0.132c-0.025,0.036-0.068,0.066-0.127,0.093
		s-0.139,0.046-0.244,0.059c-0.104,0.013-0.236,0.02-0.4,0.02c-0.156,0-0.285-0.007-0.391-0.02
		c-0.104-0.013-0.188-0.032-0.248-0.059c-0.063-0.026-0.105-0.057-0.127-0.093c-0.023-0.036-0.035-0.08-0.035-0.132V77.376
		c0-0.052,0.012-0.098,0.035-0.137c0.021-0.039,0.064-0.071,0.127-0.098c0.061-0.026,0.145-0.046,0.248-0.059
		c0.105-0.013,0.234-0.02,0.391-0.02c0.164,0,0.297,0.007,0.4,0.02c0.105,0.013,0.186,0.032,0.244,0.059s0.102,0.059,0.127,0.098
		c0.027,0.039,0.039,0.085,0.039,0.137V90.423z"/>
	<path fill="#A8A8A8" d="M120.102,90.433c0,0.078-0.025,0.137-0.078,0.176c-0.051,0.039-0.123,0.068-0.215,0.088
		c-0.09,0.02-0.225,0.029-0.4,0.029c-0.168,0-0.305-0.01-0.404-0.029c-0.102-0.02-0.174-0.049-0.221-0.088
		c-0.045-0.039-0.068-0.098-0.068-0.176v-0.879c-0.383,0.41-0.813,0.729-1.283,0.957c-0.473,0.228-0.973,0.342-1.5,0.342
		c-0.461,0-0.881-0.061-1.254-0.181c-0.375-0.12-0.693-0.295-0.957-0.522s-0.469-0.508-0.615-0.84s-0.221-0.71-0.221-1.133
		c0-0.495,0.102-0.925,0.303-1.289c0.203-0.364,0.492-0.667,0.869-0.908c0.379-0.241,0.84-0.422,1.387-0.542
		s1.162-0.181,1.846-0.181h1.211v-0.684c0-0.339-0.035-0.638-0.107-0.898c-0.07-0.261-0.188-0.477-0.346-0.649
		c-0.16-0.173-0.367-0.303-0.621-0.391s-0.566-0.132-0.938-0.132c-0.396,0-0.754,0.047-1.068,0.142
		c-0.316,0.095-0.594,0.198-0.83,0.313c-0.238,0.114-0.438,0.218-0.596,0.313c-0.16,0.095-0.279,0.142-0.357,0.142
		c-0.051,0-0.098-0.013-0.137-0.039s-0.072-0.065-0.102-0.117s-0.051-0.119-0.064-0.2c-0.012-0.081-0.02-0.171-0.02-0.269
		c0-0.163,0.012-0.291,0.035-0.386c0.021-0.095,0.078-0.184,0.166-0.269s0.238-0.184,0.453-0.298s0.463-0.218,0.742-0.313
		c0.281-0.095,0.586-0.173,0.918-0.234s0.668-0.093,1.006-0.093c0.633,0,1.17,0.071,1.611,0.215c0.443,0.144,0.801,0.354,1.074,0.63
		s0.473,0.62,0.596,1.03c0.125,0.41,0.186,0.889,0.186,1.436V90.433z M118.5,86.419h-1.377c-0.441,0-0.826,0.037-1.152,0.112
		c-0.324,0.075-0.596,0.186-0.811,0.332s-0.373,0.322-0.473,0.527c-0.102,0.205-0.152,0.441-0.152,0.708
		c0,0.456,0.145,0.818,0.436,1.089c0.289,0.271,0.695,0.405,1.215,0.405c0.424,0,0.816-0.107,1.178-0.322s0.74-0.544,1.137-0.986
		V86.419z"/>
	<path fill="#A8A8A8" d="M131.146,85.911c0,0.762-0.082,1.447-0.248,2.056s-0.41,1.128-0.732,1.558s-0.719,0.759-1.188,0.986
		s-1.006,0.342-1.611,0.342c-0.279,0-0.539-0.027-0.775-0.083c-0.238-0.056-0.471-0.145-0.699-0.269
		c-0.227-0.124-0.455-0.28-0.684-0.469c-0.227-0.188-0.469-0.417-0.723-0.684v1.074c0,0.052-0.012,0.098-0.039,0.137
		c-0.025,0.039-0.068,0.07-0.127,0.093s-0.131,0.041-0.219,0.054s-0.201,0.02-0.338,0.02c-0.129,0-0.24-0.007-0.332-0.02
		c-0.09-0.013-0.166-0.031-0.225-0.054s-0.098-0.054-0.117-0.093s-0.029-0.085-0.029-0.137V77.376c0-0.052,0.012-0.098,0.035-0.137
		c0.021-0.039,0.064-0.071,0.127-0.098c0.061-0.026,0.145-0.046,0.248-0.059c0.105-0.013,0.234-0.02,0.391-0.02
		c0.164,0,0.297,0.007,0.4,0.02c0.105,0.013,0.186,0.032,0.244,0.059s0.102,0.059,0.127,0.098c0.027,0.039,0.039,0.085,0.039,0.137
		v5.264c0.262-0.267,0.514-0.491,0.758-0.674s0.482-0.33,0.717-0.444s0.469-0.197,0.703-0.249s0.482-0.078,0.742-0.078
		c0.639,0,1.184,0.127,1.637,0.381c0.451,0.254,0.82,0.594,1.104,1.021s0.49,0.926,0.619,1.499
		C131.082,84.668,131.146,85.273,131.146,85.911z M129.477,86.097c0-0.449-0.033-0.886-0.104-1.309
		c-0.068-0.423-0.188-0.798-0.357-1.123s-0.396-0.588-0.678-0.786c-0.283-0.198-0.633-0.298-1.053-0.298
		c-0.209,0-0.416,0.029-0.619,0.088c-0.201,0.059-0.408,0.156-0.617,0.293c-0.211,0.137-0.428,0.313-0.654,0.527
		s-0.467,0.485-0.723,0.811v3.506c0.445,0.54,0.871,0.952,1.277,1.235s0.828,0.425,1.268,0.425c0.406,0,0.754-0.098,1.041-0.293
		c0.289-0.195,0.523-0.454,0.703-0.776s0.311-0.684,0.393-1.084S129.477,86.507,129.477,86.097z"/>
	<path fill="#A8A8A8" d="M135.18,90.423c0,0.052-0.012,0.096-0.039,0.132c-0.025,0.036-0.068,0.066-0.127,0.093
		s-0.139,0.046-0.244,0.059c-0.104,0.013-0.236,0.02-0.4,0.02c-0.156,0-0.285-0.007-0.391-0.02
		c-0.104-0.013-0.188-0.032-0.248-0.059c-0.063-0.026-0.105-0.057-0.127-0.093c-0.023-0.036-0.035-0.08-0.035-0.132V77.376
		c0-0.052,0.012-0.098,0.035-0.137c0.021-0.039,0.064-0.071,0.127-0.098c0.061-0.026,0.145-0.046,0.248-0.059
		c0.105-0.013,0.234-0.02,0.391-0.02c0.164,0,0.297,0.007,0.4,0.02c0.105,0.013,0.186,0.032,0.244,0.059s0.102,0.059,0.127,0.098
		c0.027,0.039,0.039,0.085,0.039,0.137V90.423z"/>
	<path fill="#A8A8A8" d="M145.658,85.647c0,0.254-0.063,0.435-0.191,0.542c-0.127,0.107-0.271,0.161-0.436,0.161h-5.789
		c0,0.488,0.049,0.928,0.148,1.318c0.098,0.391,0.262,0.726,0.49,1.006s0.525,0.495,0.893,0.645s0.814,0.225,1.344,0.225
		c0.42,0,0.793-0.034,1.119-0.103c0.328-0.068,0.609-0.145,0.85-0.229c0.238-0.085,0.434-0.161,0.588-0.229s0.27-0.103,0.35-0.103
		c0.045,0,0.086,0.012,0.121,0.034c0.037,0.022,0.064,0.057,0.084,0.103s0.035,0.109,0.045,0.19s0.014,0.181,0.014,0.298
		c0,0.085-0.002,0.158-0.01,0.22c-0.006,0.062-0.014,0.117-0.023,0.166s-0.027,0.093-0.049,0.132
		c-0.023,0.039-0.053,0.076-0.088,0.112c-0.037,0.036-0.143,0.095-0.318,0.176s-0.402,0.161-0.684,0.239
		c-0.279,0.078-0.604,0.148-0.971,0.21c-0.369,0.062-0.76,0.093-1.178,0.093c-0.723,0-1.355-0.101-1.898-0.303
		c-0.545-0.202-1.002-0.501-1.373-0.898s-0.65-0.896-0.84-1.494c-0.188-0.599-0.283-1.296-0.283-2.09
		c0-0.755,0.098-1.434,0.293-2.036s0.477-1.113,0.846-1.533c0.367-0.42,0.813-0.742,1.332-0.967
		c0.521-0.225,1.104-0.337,1.748-0.337c0.691,0,1.277,0.11,1.764,0.332c0.484,0.222,0.883,0.52,1.195,0.894s0.543,0.813,0.689,1.318
		s0.219,1.043,0.219,1.616V85.647z M144.037,85.169c0.02-0.847-0.168-1.511-0.564-1.992s-0.984-0.723-1.764-0.723
		c-0.4,0-0.75,0.075-1.051,0.225c-0.303,0.149-0.555,0.349-0.758,0.596s-0.359,0.535-0.471,0.864s-0.174,0.672-0.188,1.03H144.037z"
		/>
</g>
<g>
	<path fill="#B9BBC1" d="M92.746,8.236H76.45c0,0.999-0.811,1.81-1.812,1.81c-0.999,0-1.81-0.811-1.81-1.81H56.533
		c-2.496,0-4.527,2.031-4.527,4.527v45.267c0,2.496,2.031,4.525,4.527,4.525h36.213c2.496,0,4.526-2.029,4.526-4.525V12.763
		C97.272,10.267,95.242,8.236,92.746,8.236L92.746,8.236z M92.746,57.123c0,0.5-0.405,0.906-0.905,0.906H57.438
		c-0.5,0-0.905-0.406-0.905-0.906V13.667c0-0.5,0.405-0.905,0.905-0.905h34.403c0.5,0,0.905,0.405,0.905,0.905V57.123z
		 M92.746,57.123"/>
	<path fill="#FFAF97" d="M80.07,4.811h-2.307C77.125,3.706,75.939,3,74.639,3c-1.299,0-2.485,0.706-3.124,1.811h-2.308
		c-2.496,0-4.526,2.03-4.526,4.526v3.621c0,0.5,0.404,0.907,0.905,0.907h18.107c0.5,0,0.904-0.406,0.904-0.907V9.337
		C84.598,6.841,82.567,4.811,80.07,4.811L80.07,4.811z M74.639,7.526c-0.5,0-0.904-0.405-0.904-0.905c0-0.5,0.405-0.906,0.904-0.906
		c0.501,0,0.905,0.405,0.905,0.906C75.544,7.121,75.14,7.526,74.639,7.526L74.639,7.526z M74.639,7.526"/>
</g>
<g>
	<text transform="matrix(1.3318 0 0 1 64.6821 29.9805)" display="none" font-family="'MyriadPro-Semibold'" font-size="7.2716">X</text>
	<text transform="matrix(1.3318 0 0 1 78.2188 29.9805)" display="none" font-family="'MyriadPro-Semibold'" font-size="7.2716">X</text>
	<line fill="none" stroke="#B9BBC1" stroke-width="2" stroke-miterlimit="10" x1="66.424" y1="42.289" x2="82.854" y2="42.289"/>
	<circle fill="#B9BBC1" cx="67.001" cy="25.756" r="2.32"/>
	<circle fill="#B9BBC1" cx="82.336" cy="25.756" r="2.32"/>
</g>
</svg>
